<svg width="40" height="40" viewBox="0 0 40 40" fill="none" xmlns="http://www.w3.org/2000/svg">
<g clip-path="url(#clip0_13_5)">
<path d="M11.25 15H6.25C5.55977 15 5 15.5598 5 16.25V18.75C5 19.4402 5.55977 20 6.25 20H11.25C11.9402 20 12.5 19.4402 12.5 18.75V16.25C12.5 15.5598 11.9402 15 11.25 15ZM22.5 27.5H17.5C16.8098 27.5 16.25 28.0598 16.25 28.75V33.75C16.25 34.4402 16.8098 35 17.5 35H22.5C23.1902 35 23.75 34.4402 23.75 33.75V28.75C23.75 28.0598 23.1902 27.5 22.5 27.5ZM12.5 33.75V23.75C12.5 23.0598 11.9402 22.5 11.25 22.5H6.25C5.55977 22.5 5 23.0598 5 23.75V33.75C5 34.4402 5.55977 35 6.25 35H11.25C11.9402 35 12.5 34.4402 12.5 33.75ZM22.5 20H17.5C16.8098 20 16.25 20.5598 16.25 21.25V23.75C16.25 24.4402 16.8098 25 17.5 25H22.5C23.1902 25 23.75 24.4402 23.75 23.75V21.25C23.75 20.5598 23.1902 20 22.5 20ZM33.75 15H28.75C28.0598 15 27.5 15.5598 27.5 16.25V18.75C27.5 19.4402 28.0598 20 28.75 20H33.75C34.4402 20 35 19.4402 35 18.75V16.25C35 15.5598 34.4402 15 33.75 15ZM22.5 5H17.5C16.8098 5 16.25 5.55977 16.25 6.25V16.25C16.25 16.9402 16.8098 17.5 17.5 17.5H22.5C23.1902 17.5 23.75 16.9402 23.75 16.25V6.25C23.75 5.55977 23.1902 5 22.5 5ZM11.25 5H6.25C5.55977 5 5 5.55977 5 6.25V11.25C5 11.9402 5.55977 12.5 6.25 12.5H11.25C11.9402 12.5 12.5 11.9402 12.5 11.25V6.25C12.5 5.55977 11.9402 5 11.25 5ZM33.75 5H28.75C28.0598 5 27.5 5.55977 27.5 6.25V11.25C27.5 11.9402 28.0598 12.5 28.75 12.5H33.75C34.4402 12.5 35 11.9402 35 11.25V6.25C35 5.55977 34.4402 5 33.75 5ZM33.75 22.5H28.75C28.0598 22.5 27.5 23.0598 27.5 23.75V33.75C27.5 34.4402 28.0598 35 28.75 35H33.75C34.4402 35 35 34.4402 35 33.75V23.75C35 23.0598 34.4402 22.5 33.75 22.5Z" fill="black"/>
</g>
<defs>
<clipPath id="clip0_13_5">
<rect width="40" height="40" fill="white"/>
</clipPath>
</defs>
</svg>
